<svg width="144" height="181" viewBox="0 0 144 181" fill="none" xmlns="http://www.w3.org/2000/svg">
<g clip-path="url(#clip0_1_2560)">
<path d="M39.7353 148.876C44.6486 145.273 51.5529 146.334 55.1564 151.248C58.7598 156.161 57.6981 163.066 52.7849 166.669L44.5473 172.71C39.6341 176.313 32.7298 175.252 29.1263 170.34C25.5227 165.426 26.5844 158.521 31.4978 154.918L39.7353 148.876Z" fill="#E619DF"/>
<path fill-rule="evenodd" clip-rule="evenodd" d="M37.2363 150.711C40.5548 155.6 39.4325 162.277 34.6294 165.798L28.8896 170.009C25.5711 165.121 26.6934 158.444 31.4965 154.921L37.2363 150.711Z" fill="#C128C1"/>
<path d="M17.5961 146.489C22.5093 142.885 29.4134 143.947 33.017 148.86C36.6205 153.773 35.5588 160.678 30.6456 164.281L22.4081 170.323C17.4947 173.926 10.5905 172.864 6.98697 167.952C3.38343 163.038 4.44517 156.134 9.35843 152.53L17.5961 146.489Z" fill="#E619DF"/>
<path d="M9.08665 110.541L41.5608 33.5486C56.9342 31.5546 75.5831 58.5824 64.6268 90.0897C54.9448 117.933 31.17 123.579 12.1208 117.62C9.17563 116.699 7.88742 113.384 9.08665 110.541Z" fill="url(#paint0_radial_1_2560)"/>
<path d="M95.932 12.7232C90.1143 11.8613 66.3138 -8.11426 38.8424 4.59226C28.4195 9.41326 23.4177 18.0895 21.8547 31.0401C20.4698 42.5162 25.1413 54.187 28.76 66.7016C24.2013 81.0918 21.2173 91.1185 26.0589 103.777C34.918 126.939 63.1549 151.071 100.828 137.606C157.497 117.352 141.103 47.1601 136.794 31.6461C132.484 16.1321 122.903 9.06126 114.931 9.70768C106.958 10.3541 101.75 13.585 95.932 12.7232Z" fill="url(#paint1_radial_1_2560)"/>
<path fill-rule="evenodd" clip-rule="evenodd" d="M38.286 123.103C45.61 120.757 53.8817 116.124 62.0483 107.087C63.028 106.003 62.9433 104.33 61.8593 103.35C60.7751 102.371 59.1022 102.455 58.1226 103.539C50.5637 111.904 43.0706 116.024 36.6203 118.08C35.9109 118.307 35.2129 118.508 34.5271 118.688C35.698 120.2 36.9522 121.676 38.286 123.103Z" fill="#1F66FB"/>
<path fill-rule="evenodd" clip-rule="evenodd" d="M135.891 38.415C134.555 28.2001 129.185 24.1228 125.586 24.5934C121.987 25.0639 122.443 29.6164 123.779 39.8313C124.288 43.7265 124.504 45.8261 124.616 47.0833C127.086 48.8554 128.866 51.6116 128.866 54.7816C128.246 54.9737 127.566 55.1374 126.842 55.2744C127.532 56.7905 128.383 58.3216 129.345 59.433C132.029 56.1937 135.308 54.1231 137.612 53.0474C137.579 51.8593 137.465 50.4914 137.259 48.9156L135.891 38.415Z" fill="#C7FFFE"/>
<path fill-rule="evenodd" clip-rule="evenodd" d="M124.616 47.0882C125.797 47.9353 126.82 49.0071 127.566 50.2414L127.734 50.2178C130.488 49.8284 132.404 47.2805 132.015 44.5267L130.291 32.3324C129.925 29.7458 127.655 27.8978 125.098 28.0054C126.11 28.7242 126.771 29.9056 126.771 31.2411C126.771 33.2984 125.204 34.9898 123.199 35.1878C123.358 36.5844 123.557 38.1314 123.779 39.8361C124.289 43.7314 124.505 45.831 124.616 47.0882Z" fill="#3C4DFF"/>
<path fill-rule="evenodd" clip-rule="evenodd" d="M80.4069 18.6154C90.2774 17.3246 99.3618 24.5591 100.698 34.774L102.058 45.1778C102.91 51.6886 100.408 57.8388 95.9252 61.7772C89.4638 56.9235 79.1146 51.0269 66.3009 49.7517L64.9535 39.4481C63.6177 29.2332 70.5364 19.9061 80.4069 18.6154Z" fill="#C7FFFE"/>
<path fill-rule="evenodd" clip-rule="evenodd" d="M81.592 34.7119C84.6969 34.1836 86.7826 31.2836 86.2504 28.2349C86.0931 27.3332 85.7243 26.5193 85.2026 25.8341C85.8463 25.555 86.5355 25.3475 87.2612 25.2239C91.9567 24.4249 96.4032 27.4432 97.1924 31.9655L98.7169 40.6999C99.5061 45.2222 96.3395 49.5361 91.6438 50.3353C86.9483 51.1344 82.5018 48.1161 81.7126 43.5938L80.1881 34.8595C80.1834 34.8326 80.1789 34.8056 80.1744 34.7787C80.6377 34.8138 81.1129 34.7935 81.592 34.7119Z" fill="#3C4DFF"/>
<path fill-rule="evenodd" clip-rule="evenodd" d="M109.218 57.2163C110.049 57.1349 110.789 57.7428 110.87 58.5737C111.512 65.1375 113.237 69.5446 115.583 71.6026C116.7 72.5829 117.978 73.0523 119.475 72.9812C121.017 72.9081 122.903 72.2543 125.146 70.7586C125.841 70.2955 126.779 70.4832 127.242 71.178C127.705 71.8726 127.518 72.8112 126.823 73.2744C124.297 74.9581 121.884 75.894 119.618 76.0014C117.309 76.1109 115.272 75.352 113.589 73.8754C110.334 71.0198 108.519 65.5997 107.861 58.868C107.779 58.0371 108.387 57.2975 109.218 57.2163Z" fill="#0455FF"/>
<path d="M120.228 68.9277C116.403 68.3051 116.003 65.4137 113.289 55.272H123.431C123.653 56.9623 124.276 62.1666 124.588 64.3906C124.962 67.0692 123.52 69.4634 120.228 68.9277Z" fill="#0455FF"/>
<path fill-rule="evenodd" clip-rule="evenodd" d="M112.709 46.6868C113.313 47.2626 114.242 47.6842 115.539 47.7394C115.676 47.7453 115.811 47.7505 115.944 47.7557C118.443 47.8539 120.31 47.9273 122.055 50.9402C122.85 52.3146 126.354 52.2831 126.928 49.2996C124.907 46.6754 121.596 44.9891 118.429 44.9893C116.269 44.9893 114.31 45.6408 112.709 46.6868Z" fill="#C7FFFE"/>
<path fill-rule="evenodd" clip-rule="evenodd" d="M107.423 54.2145C107.636 53.4072 108.462 52.925 109.27 53.1376C116.419 55.021 123.094 54.2719 127.201 53.4505C128.02 53.2868 128.816 53.8178 128.98 54.6365C129.144 55.4552 128.613 56.2516 127.794 56.4155C123.45 57.2844 116.266 58.1073 108.5 56.0615C107.692 55.8488 107.21 55.0218 107.423 54.2145Z" fill="#0455FF"/>
<path fill-rule="evenodd" clip-rule="evenodd" d="M63.2758 8.06821C62.4381 7.75661 61.6203 7.73067 60.7824 8.24069C60.0692 8.67483 59.1392 8.44863 58.7051 7.73546C58.2709 7.02227 58.4971 6.09218 59.2103 5.65804C61.0315 4.54933 62.8604 4.68781 64.3298 5.23435C65.7489 5.76212 66.9009 6.68746 67.5949 7.30441C68.2189 7.8591 68.2752 8.81466 67.7204 9.43869C67.1658 10.0627 66.2101 10.1189 65.5861 9.56424C64.9797 9.02506 64.164 8.39856 63.2758 8.06821Z" fill="#C7FFFE"/>
<path fill-rule="evenodd" clip-rule="evenodd" d="M113.267 11.0304C113.979 10.5943 114.91 10.818 115.346 11.53C117.232 14.6094 117.783 17.4626 116.842 19.7008C115.868 22.0177 113.559 23.0843 111.093 23.0843C110.258 23.0843 109.581 22.4075 109.581 21.5726C109.581 20.7377 110.258 20.0608 111.093 20.0608C112.747 20.0608 113.692 19.3926 114.055 18.5289C114.451 17.5863 114.424 15.8129 112.768 13.1092C112.331 12.3972 112.555 11.4665 113.267 11.0304Z" fill="#1F66FB"/>
<path fill-rule="evenodd" clip-rule="evenodd" d="M60.6715 5.68066C61.4035 6.08212 61.6715 7.00104 61.2701 7.73312C59.6246 10.7337 60.4403 14.4063 60.9418 15.9108L61.311 17.0186L60.3326 17.6557C60.0435 17.844 59.5163 18.35 58.8732 19.2371C58.2529 20.0929 57.5913 21.2112 57.0016 22.5172C55.8172 25.1402 54.9706 28.4108 55.2341 31.7326C55.9601 40.8805 56.9646 50.0917 58.493 54.9551C58.5624 55.1757 58.6323 55.4022 58.7038 55.6338C59.4746 58.1295 60.4326 61.232 62.8376 64.1242C65.4236 67.2338 69.8077 70.224 77.8184 71.5475C90.7704 73.6874 98.188 69.7555 100.07 67.9125C100.667 67.3283 101.624 67.3383 102.208 67.9349C102.792 68.5315 102.782 69.4886 102.186 70.0728C99.4436 72.7577 90.9644 76.784 77.3257 74.5306C68.717 73.1083 63.6353 69.8122 60.5129 66.0574C57.7029 62.6783 56.582 59.0269 55.8195 56.5435C55.7463 56.3051 55.6764 56.0772 55.6086 55.8615C53.9578 50.6089 52.9392 41.0329 52.2201 31.9718C51.9057 28.01 52.9137 24.2234 54.246 21.2728C54.9147 19.792 55.6772 18.4945 56.4252 17.4626C56.8621 16.8598 57.3207 16.3105 57.7797 15.8626C57.2292 13.7133 56.6932 9.79104 58.619 6.27927C59.0204 5.5472 59.9393 5.2792 60.6715 5.68066Z" fill="#1F66FB"/>
<path fill-rule="evenodd" clip-rule="evenodd" d="M142.253 66.6226C141.902 67.3079 141.229 68.1559 140.27 68.6676C139.275 69.1989 137.814 69.4564 135.727 68.4859C134.97 68.1338 134.071 68.4621 133.719 69.2192C133.367 69.9762 133.695 70.8753 134.452 71.2275C137.337 72.5693 139.801 72.3452 141.694 71.3349C141.914 71.2175 142.124 71.0907 142.324 70.9564C142.326 69.4966 142.301 68.0506 142.253 66.6226Z" fill="#0455FF"/>
<path fill-rule="evenodd" clip-rule="evenodd" d="M70.036 5.54587C69.226 5.3237 68.8379 5.32264 68.7285 5.34369C67.9087 5.50136 67.116 4.96452 66.9584 4.14463C66.8008 3.32472 67.3376 2.53223 68.1574 2.37455C68.9874 2.21495 69.9459 2.38592 70.8357 2.62999C71.7783 2.88852 72.8747 3.29755 74.0785 3.80718C76.488 4.82727 79.4853 6.31836 82.8183 8.02186C83.9042 8.57681 85.0279 9.15536 86.1823 9.74981C92.1557 12.8255 98.9553 16.3267 105.626 19.1858C107.767 20.1036 110.119 20.1411 110.782 20.0675C111.612 19.9753 112.359 20.5731 112.452 21.403C112.544 22.2328 111.946 22.9804 111.116 23.0725C110.044 23.1916 107.149 23.1282 104.435 21.9648C97.6562 19.0595 90.7439 15.4999 84.7727 12.425C83.6253 11.8341 82.5127 11.2611 81.4424 10.7141C78.1034 9.00769 75.1962 7.56369 72.8997 6.59149C71.7507 6.10498 70.7934 5.75358 70.036 5.54587Z" fill="#C7FFFE"/>
<g style="mix-blend-mode:overlay">
<path d="M97.0169 94.6375L111.459 94.8197C112.233 94.8295 112.752 95.718 112.483 96.5743C111.192 100.689 107.752 103.498 103.936 103.45C100.12 103.401 96.8781 100.508 95.8726 96.3646C95.6634 95.5023 96.2428 94.6277 97.0169 94.6375Z" fill="#204AFF"/>
</g>
<g style="mix-blend-mode:overlay">
<path d="M121.125 95.0241L133.964 94.6095C134.74 94.5833 135.275 95.4449 135.021 96.3109C133.799 100.472 131.483 103.242 127.658 103.371C123.832 103.5 121.089 100.882 120.008 96.7987C119.783 95.9489 120.348 95.0502 121.125 95.0241Z" fill="#204AFF"/>
</g>
<g style="mix-blend-mode:overlay">
<path d="M109.116 110.521L122.413 110.715C123.188 110.698 123.724 111.566 123.471 112.43C122.257 116.584 120.032 118.985 116.211 119.072C112.391 119.159 109.09 116.386 108.004 112.286C107.778 111.432 108.341 110.538 109.116 110.521Z" fill="#204AFF"/>
</g>
</g>
<defs>
<radialGradient id="paint0_radial_1_2560" cx="0" cy="0" r="1" gradientUnits="userSpaceOnUse" gradientTransform="translate(112.284 18.9144) rotate(119.366) scale(133.976 179.711)">
<stop stop-color="#26FF55"/>
<stop offset="0.569543" stop-color="#268AFF"/>
<stop offset="0.987801" stop-color="#FC55FF"/>
</radialGradient>
<radialGradient id="paint1_radial_1_2560" cx="0" cy="0" r="1" gradientUnits="userSpaceOnUse" gradientTransform="translate(112.284 18.9142) rotate(119.366) scale(133.976 179.711)">
<stop stop-color="#26FF55"/>
<stop offset="0.569543" stop-color="#268AFF"/>
<stop offset="0.987801" stop-color="#FC55FF"/>
</radialGradient>
<clipPath id="clip0_1_2560">
<rect width="143.077" height="180" fill="white" transform="translate(0.461548 0.375)"/>
</clipPath>
</defs>
</svg>
